<svg viewBox="0 0 160 160" fill="none" xmlns="http://www.w3.org/2000/svg">
<g clip-path="url(#clip0_1_5)">
<path d="M80 160C124.183 160 160 124.183 160 80C160 35.8172 124.183 0 80 0C35.8172 0 0 35.8172 0 80C0 124.183 35.8172 160 80 160Z" fill="url(#paint0_linear_1_5)"/>
<path d="M31.7 78.36C49.1064 71.0368 66.5601 63.8264 84.06 56.7293C108.991 46.7907 112.46 45.34 115.831 45.2893C117.278 45.3348 118.672 45.8512 119.8 46.76C121.211 47.96 121.64 48.72 121.76 49.3893C121.871 50.06 121.86 52.1493 121.74 53.34C120.389 66.9493 115.26 98.38 112.289 113.64C111.029 120.089 108.549 122.249 106.149 122.46C100.94 122.92 96.98 119.16 91.9306 115.98C84.0306 111.009 81.3906 109.18 73.7306 104.331C64.86 98.7307 68.5093 96.78 73.56 91.7493C74.88 90.44 96.78 70.4507 97.1093 68.6293C97.3893 67.0293 97.4906 66.82 96.7706 66.1C96.04 65.38 95.1706 65.4693 94.6106 65.5893C93.8106 65.76 81.7506 73.3893 58.4106 88.4907C54.8306 90.86 51.5906 92.0107 48.68 91.9507C45.48 91.88 39.3106 90.2107 34.7306 88.78C29.1 87.02 24.6306 86.1 25.0306 83.12C25.2306 81.5693 27.4493 79.98 31.7 78.36Z" fill="white"/>
</g>
<defs>
<linearGradient id="paint0_linear_1_5" x1="8000" y1="0" x2="8000" y2="16000" gradientUnits="userSpaceOnUse">
<stop stop-color="#38AEEB"/>
<stop offset="1" stop-color="#279AD1"/>
</linearGradient>
<clipPath id="clip0_1_5">
<rect width="160" height="160" fill="white"/>
</clipPath>
</defs>
</svg>
