<svg width="20" height="16" viewBox="0 0 20 16" fill="none" xmlns="http://www.w3.org/2000/svg">
    <path d="M8.12358 2.15635C8.57419 1.66305 8.57419 0.863264 8.12358 0.36997C7.67298 -0.123323 6.9424 -0.123323 6.4918 0.36997L0.337954 7.10681C0.112651 7.35346 0 7.67673 0 8C0 8.17127 0.0311371 8.33458 0.0875524 8.48352C0.14386 8.6325 0.227327 8.77208 0.337954 8.89319L6.4918 15.63C6.9424 16.1233 7.67298 16.1233 8.12358 15.63C8.57419 15.1367 8.57419 14.3369 8.12358 13.8437L3.93948 9.26316H18.8462C19.4834 9.26316 20 8.69762 20 8C20 7.30238 19.4834 6.73684 18.8462 6.73684H3.93948L8.12358 2.15635Z"
          fill="#707579"/>
</svg>
