<svg width="40" height="40" viewBox="0 0 60 60" fill="none" xmlns="http://www.w3.org/2000/svg">
    <circle cx="30" cy="30" r="30" fill="#37ADEA"/>
    <path fill-rule="evenodd" clip-rule="evenodd"
          d="M20.6251 17.5C20.6251 15.0136 21.6128 12.629 23.371 10.8709C25.1291 9.11272 27.5137 8.125 30.0001 8.125C32.4865 8.125 34.8711 9.11272 36.6292 10.8709C38.3874 12.629 39.3751 15.0136 39.3751 17.5C39.3751 19.9864 38.3874 22.371 36.6292 24.1291C34.8711 25.8873 32.4865 26.875 30.0001 26.875C27.5137 26.875 25.1291 25.8873 23.371 24.1291C21.6128 22.371 20.6251 19.9864 20.6251 17.5ZM12.8147 46.8854C12.885 42.3739 14.7265 38.0709 17.9417 34.9054C21.157 31.7398 25.4881 29.9655 30.0001 29.9655C34.5122 29.9655 38.8433 31.7398 42.0585 34.9054C45.2738 38.0709 47.1153 42.3739 47.1855 46.8854C47.191 47.1891 47.1077 47.4878 46.946 47.745C46.7843 48.0022 46.5512 48.2066 46.2751 48.3333C41.1692 50.6744 35.6171 51.8826 30.0001 51.875C24.196 51.875 18.6814 50.6083 13.7251 48.3333C13.449 48.2066 13.2159 48.0022 13.0542 47.745C12.8925 47.4878 12.8093 47.1891 12.8147 46.8854Z"
          fill="white"/>
</svg>
