<svg viewBox="0 0 24 24" fill="none" xmlns="http://www.w3.org/2000/svg">
    <path d="M11.0504 2.06186C11.8181 1.38373 12.6792 0.870562 13.6336 0.522337C14.6088 0.174112 15.5996 0 16.6059 0C17.6123 0 18.5926 0.174112 19.5471 0.522337C20.5223 0.870562 21.3938 1.38373 22.1615 2.06186C22.7425 2.61168 23.1886 3.21649 23.4998 3.87629C23.811 4.55441 23.977 5.2417 23.9978 5.93814C24.0185 6.63459 23.894 7.33104 23.6243 8.02749C23.3546 8.70561 22.9396 9.31959 22.3794 9.86942L22.1615 10.0893L12.5754 18.6942C11.7662 19.4273 10.7806 19.7938 9.61867 19.7938C8.45673 19.7938 7.47115 19.4273 6.66193 18.6942C5.70748 17.8328 5.21469 16.8064 5.18356 15.6151C5.15244 14.4238 5.58298 13.3792 6.47519 12.4811L6.66193 12.2887L11.3305 8.08247C11.6002 7.84422 11.9166 7.72509 12.2797 7.72509C12.6429 7.72509 12.9593 7.83505 13.229 8.05498C13.4573 8.27491 13.5817 8.5315 13.6025 8.82474C13.6232 9.11798 13.5402 9.38373 13.3535 9.62199L13.229 9.73196L8.56047 13.9381C8.08324 14.378 7.84463 14.9003 7.84463 15.5052C7.84463 16.11 8.08324 16.6323 8.56047 17.0722C8.83021 17.3104 9.15701 17.4387 9.54086 17.457C9.92472 17.4754 10.2619 17.3746 10.5524 17.1546L10.6769 17.0722L20.2629 8.43986C20.9892 7.78007 21.3523 6.99198 21.3523 6.0756C21.3523 5.15922 20.9892 4.37113 20.2629 3.71134C19.2877 2.83162 18.1102 2.37801 16.7304 2.35052C15.3506 2.32302 14.1523 2.71249 13.1356 3.5189L12.9489 3.71134L4.6389 11.189C3.97493 11.7938 3.47695 12.4719 3.14497 13.2234C2.81298 13.9565 2.64699 14.7125 2.64699 15.4914C2.64699 16.2703 2.81298 17.0355 3.14497 17.7869C3.47695 18.5384 3.97493 19.2165 4.6389 19.8213C5.30287 20.4078 6.04984 20.8568 6.8798 21.1684C7.73051 21.48 8.5916 21.6449 9.46306 21.6632C10.3345 21.6816 11.1956 21.5533 12.0463 21.2784C12.897 21.0034 13.6647 20.5819 14.3495 20.0137L14.5985 19.8213L19.4849 15.4227C19.7338 15.1844 20.0451 15.0653 20.4186 15.0653C20.792 15.0653 21.1033 15.1753 21.3523 15.3952C21.6013 15.6151 21.7361 15.8717 21.7569 16.1649C21.7776 16.4582 21.6843 16.7148 21.4768 16.9347L21.3834 17.0722L16.497 21.4708C15.5425 22.3139 14.474 22.9462 13.2913 23.3677C12.0878 23.7892 10.8636 24 9.61867 24C8.37373 24 7.14954 23.7892 5.94609 23.3677C4.76339 22.9462 3.69482 22.3139 2.74036 21.4708C1.84815 20.646 1.1738 19.7388 0.717325 18.7491C0.260845 17.7411 0.0222311 16.7102 0.00148208 15.6564C-0.019267 14.6025 0.177849 13.5624 0.59283 12.5361C1.00781 11.5281 1.64066 10.6117 2.49137 9.78694L2.74036 9.53952L11.0504 2.06186Z"
          fill="#707579" fill-opacity="0.8"/>
</svg>
