<svg viewBox="0 0 24 24" fill="none" xmlns="http://www.w3.org/2000/svg">
    <path d="M2.17484 11.9872C2.17484 10.6411 2.4307 9.37167 2.94243 8.17891C3.45416 6.98616 4.15778 5.94675 5.0533 5.0607C5.94883 4.17465 6.9936 3.47604 8.18763 2.96486C9.3646 2.43664 10.6354 2.17252 12 2.17252C13.3646 2.17252 14.6354 2.43664 15.8124 2.96486C17.0064 3.47604 18.0512 4.17465 18.9467 5.0607C19.8422 5.94675 20.5458 6.98616 21.0576 8.17891C21.5693 9.37167 21.8252 10.6411 21.8252 11.9872C21.8252 13.3504 21.5693 14.6283 21.0576 15.8211C20.5458 17.0138 19.8422 18.0532 18.9467 18.9393C18.0512 19.8253 17.0064 20.524 15.8124 21.0351C14.6354 21.5463 13.3646 21.8019 12 21.8019C10.6354 21.8019 9.3646 21.5463 8.18763 21.0351C6.9936 20.524 5.94883 19.8253 5.0533 18.9393C4.15778 18.0532 3.45416 17.0138 2.94243 15.8211C2.4307 14.6283 2.17484 13.3504 2.17484 11.9872ZM12 0C10.3454 0 8.78465 0.315229 7.3177 0.945688C5.8678 1.57615 4.59701 2.43237 3.50533 3.51438C2.41365 4.59638 1.56077 5.87008 0.946695 7.33546C0.315565 8.78381 0 10.3344 0 11.9872C0 13.6571 0.315565 15.2162 0.946695 16.6645C1.56077 18.1299 2.41365 19.4036 3.50533 20.4856C4.59701 21.5676 5.8678 22.4239 7.3177 23.0543C8.78465 23.6848 10.3454 24 12 24C13.6546 24 15.2154 23.6848 16.6823 23.0543C18.1322 22.4239 19.403 21.5676 20.4947 20.4856C21.5864 19.4036 22.4392 18.1299 23.0533 16.6645C23.6844 15.2162 24 13.6571 24 11.9872C24 10.3344 23.6844 8.78381 23.0533 7.33546C22.4392 5.87008 21.5864 4.59638 20.4947 3.51438C19.403 2.43237 18.1322 1.57615 16.6823 0.945688C15.2154 0.315229 13.6546 0 12 0ZM7.57356 14.2364C7.4371 13.9808 7.23241 13.8104 6.95949 13.7252C6.68657 13.64 6.42217 13.6656 6.16631 13.8019C5.91045 13.9212 5.73987 14.1171 5.65458 14.3898C5.5693 14.6624 5.59488 14.9265 5.73134 15.1821C6.3113 16.3237 7.15991 17.2524 8.27719 17.9681C9.39446 18.6837 10.6354 19.0415 12 19.0415C13.3646 19.0415 14.6055 18.6837 15.7228 17.9681C16.8401 17.2524 17.6887 16.3323 18.2687 15.2077C18.4051 14.9521 18.4264 14.688 18.3326 14.4153C18.2388 14.1427 18.064 13.9382 17.8081 13.8019C17.5693 13.6656 17.3134 13.6443 17.0405 13.738C16.7676 13.8317 16.5629 14.0064 16.4264 14.262C16.0171 15.0628 15.4158 15.7103 14.6226 16.2045C13.8294 16.6986 12.9552 16.9457 12 16.9457C11.0277 16.9457 10.1493 16.6986 9.3646 16.2045C8.57996 15.7103 7.98294 15.0543 7.57356 14.2364ZM9.82516 9.27796C9.82516 9.72098 9.6887 10.1044 9.41578 10.4281C9.14286 10.7519 8.81876 10.9137 8.4435 10.9137C8.06823 10.9137 7.7484 10.7519 7.48401 10.4281C7.21962 10.1044 7.08742 9.72098 7.08742 9.27796C7.08742 8.81789 7.21962 8.43025 7.48401 8.11502C7.7484 7.79979 8.06823 7.64217 8.4435 7.64217C8.81876 7.64217 9.14286 7.79979 9.41578 8.11502C9.6887 8.43025 9.82516 8.81789 9.82516 9.27796ZM15.5565 10.9137C15.9318 10.9137 16.2516 10.7519 16.516 10.4281C16.7804 10.1044 16.9126 9.72098 16.9126 9.27796C16.9126 8.81789 16.7804 8.43025 16.516 8.11502C16.2516 7.79979 15.9318 7.64217 15.5565 7.64217C15.1812 7.64217 14.8571 7.79979 14.5842 8.11502C14.3113 8.43025 14.1748 8.81789 14.1748 9.27796C14.1748 9.72098 14.3113 10.1044 14.5842 10.4281C14.8571 10.7519 15.1812 10.9137 15.5565 10.9137Z"
          fill="#707579" fill-opacity="0.8"/>
</svg>
