<svg width="40" height="40" viewBox="0 0 60 60" fill="none" xmlns="http://www.w3.org/2000/svg">
    <circle cx="30" cy="30" r="30" fill="#37ADEA"/>
    <path fill-rule="evenodd" clip-rule="evenodd"
          d="M22.1875 19.0625C22.1875 16.9905 23.0106 15.0034 24.4757 13.5382C25.9409 12.0731 27.928 11.25 30 11.25C32.072 11.25 34.0591 12.0731 35.5243 13.5382C36.9894 15.0034 37.8125 16.9905 37.8125 19.0625C37.8125 21.1345 36.9894 23.1216 35.5243 24.5868C34.0591 26.0519 32.072 26.875 30 26.875C27.928 26.875 25.9409 26.0519 24.4757 24.5868C23.0106 23.1216 22.1875 21.1345 22.1875 19.0625ZM37.8125 25.3125C37.8125 23.6549 38.471 22.0652 39.6431 20.8931C40.8152 19.721 42.4049 19.0625 44.0625 19.0625C45.7201 19.0625 47.3098 19.721 48.4819 20.8931C49.654 22.0652 50.3125 23.6549 50.3125 25.3125C50.3125 26.9701 49.654 28.5598 48.4819 29.7319C47.3098 30.904 45.7201 31.5625 44.0625 31.5625C42.4049 31.5625 40.8152 30.904 39.6431 29.7319C38.471 28.5598 37.8125 26.9701 37.8125 25.3125ZM9.6875 25.3125C9.6875 23.6549 10.346 22.0652 11.5181 20.8931C12.6902 19.721 14.2799 19.0625 15.9375 19.0625C17.5951 19.0625 19.1848 19.721 20.3569 20.8931C21.529 22.0652 22.1875 23.6549 22.1875 25.3125C22.1875 26.9701 21.529 28.5598 20.3569 29.7319C19.1848 30.904 17.5951 31.5625 15.9375 31.5625C14.2799 31.5625 12.6902 30.904 11.5181 29.7319C10.346 28.5598 9.6875 26.9701 9.6875 25.3125ZM18.1458 36.4937C19.4166 34.5021 21.1689 32.863 23.2409 31.728C25.3128 30.593 27.6375 29.9987 30 30C31.9788 29.9982 33.9357 30.4143 35.7425 31.2212C37.5493 32.028 39.1654 33.2074 40.4848 34.682C41.8043 36.1567 42.7975 37.8934 43.3993 39.7784C44.0011 41.6635 44.198 43.6544 43.9771 45.6208C43.9501 45.8651 43.8658 46.0996 43.7312 46.3052C43.5965 46.5108 43.4152 46.6818 43.2021 46.8042C39.1845 49.1094 34.632 50.3192 30 50.3125C25.1979 50.3125 20.6875 49.0375 16.7979 46.8042C16.5848 46.6818 16.4035 46.5108 16.2688 46.3052C16.1342 46.0996 16.0499 45.8651 16.0229 45.6208C15.673 42.4263 16.4218 39.2079 18.1458 36.4958V36.4937Z"
          fill="white"/>
    <path d="M15.5874 34.6958C13.5327 37.8675 12.5755 41.6256 12.8624 45.3937C11.6114 45.2041 10.381 44.8972 9.18742 44.4771L8.94784 44.3937C8.73408 44.3179 8.54691 44.1817 8.40898 44.0016C8.27106 43.8215 8.18831 43.6053 8.17076 43.3792L8.14992 43.1271C8.06577 42.0812 8.19317 41.029 8.52452 40.0334C8.85587 39.0378 9.38438 38.1192 10.0785 37.3323C10.7727 36.5454 11.6182 35.9064 12.5647 35.4535C13.5112 35.0005 14.5392 34.7428 15.5874 34.6958ZM47.1374 45.3937C47.4244 41.6256 46.4671 37.8675 44.4124 34.6958C45.4607 34.7428 46.4887 35.0005 47.4352 35.4535C48.3817 35.9064 49.2272 36.5454 49.9213 37.3323C50.6155 38.1192 51.144 39.0378 51.4753 40.0334C51.8067 41.029 51.9341 42.0812 51.8499 43.1271L51.8291 43.3792C51.8111 43.6049 51.7282 43.8207 51.5903 44.0004C51.4524 44.18 51.2655 44.3159 51.052 44.3917L50.8124 44.475C49.6312 44.8917 48.4041 45.2021 47.1374 45.3937Z"
          fill="white"/>
</svg>
