<svg width="20" height="24" viewBox="0 0 20 24" fill="none" xmlns="http://www.w3.org/2000/svg">
    <path d="M4.71074 5.14286C4.71074 3.73214 5.22498 2.52232 6.25344 1.51339C7.28191 0.504463 8.53076 0 10 0C11.4692 0 12.7181 0.504463 13.7466 1.51339C14.775 2.52232 15.2893 3.73214 15.2893 5.14286V10.875C15.2893 12.2857 14.775 13.4955 13.7466 14.5045C12.7181 15.5134 11.4692 16.0179 10 16.0179C8.53076 16.0179 7.28191 15.5134 6.25344 14.5045C5.22498 13.4955 4.71074 12.2857 4.71074 10.875V5.14286ZM10 2.30357C9.19192 2.30357 8.49862 2.58036 7.92011 3.13393C7.3416 3.6875 7.05234 4.35714 7.05234 5.14286V10.875C7.05234 11.6607 7.3416 12.3304 7.92011 12.8839C8.49862 13.4375 9.19192 13.7143 10 13.7143C10.8081 13.7143 11.5014 13.4375 12.0799 12.8839C12.6584 12.3304 12.9477 11.6607 12.9477 10.875V5.14286C12.9477 4.35714 12.6584 3.6875 12.0799 3.13393C11.5014 2.58036 10.8081 2.30357 10 2.30357ZM1.18457 9.72321C1.51515 9.72321 1.79522 9.83482 2.02479 10.058C2.25436 10.2812 2.36915 10.5536 2.36915 10.875C2.36915 11.8929 2.56198 12.8571 2.94766 13.7679C3.3517 14.6607 3.90266 15.442 4.60055 16.1116C5.29844 16.7812 6.10652 17.3125 7.02479 17.7054C7.96143 18.0982 8.95317 18.2946 10 18.2946C11.0468 18.2946 12.0386 18.0982 12.9752 17.7054C13.8935 17.3125 14.7016 16.7812 15.3994 16.1116C16.0973 15.442 16.6483 14.6607 17.0523 13.7679C17.438 12.8571 17.6309 11.8929 17.6309 10.875C17.6309 10.5536 17.7456 10.2812 17.9752 10.058C18.2048 9.83482 18.4848 9.72321 18.8154 9.72321C19.146 9.72321 19.4261 9.83482 19.6556 10.058C19.8852 10.2812 20 10.5536 20 10.875C20 12.1071 19.7704 13.2768 19.3113 14.3839C18.8522 15.4911 18.2277 16.4777 17.438 17.3438C16.6483 18.2098 15.7208 18.9196 14.6556 19.4732C13.5721 20.0268 12.4151 20.375 11.1846 20.5179V22.875C11.1846 23.1786 11.0698 23.442 10.8402 23.6652C10.6107 23.8884 10.3306 24 10 24C9.66942 24 9.38935 23.8884 9.15978 23.6652C8.93021 23.442 8.81543 23.1786 8.81543 22.875V20.5179C7.58494 20.375 6.42792 20.0268 5.34435 19.4732C4.27916 18.9196 3.3517 18.2098 2.56198 17.3438C1.77227 16.4777 1.14784 15.4911 0.688705 14.3839C0.229568 13.2768 0 12.1071 0 10.875C0 10.5536 0.114784 10.2812 0.344353 10.058C0.573921 9.83482 0.853994 9.72321 1.18457 9.72321Z"
          fill="#707579" fill-opacity="0.8"/>
</svg>
